<?xml version="1.0" standalone="no"?>
<!DOCTYPE svg PUBLIC "-//W3C//DTD SVG 20010904//EN"
 "http://www.w3.org/TR/2001/REC-SVG-20010904/DTD/svg10.dtd">
<svg version="1.0" xmlns="http://www.w3.org/2000/svg"
 width="500.000000pt" height="500.000000pt" viewBox="0 0 500.000000 500.000000"
 preserveAspectRatio="xMidYMid meet">
<metadata>
Created by potrace 1.11, written by Peter Selinger 2001-2013
</metadata>
<g transform="translate(0.000000,500.000000) scale(0.100000,-0.100000)"
fill="#000000" stroke="none">
<path d="M1545 4592 c-63 -22 -137 -72 -170 -117 -34 -44 -77 -154 -175 -445
-240 -714 -489 -1744 -493 -2040 -2 -143 23 -197 108 -243 40 -22 45 -22 630
-22 l591 0 -133 -464 c-119 -415 -133 -473 -133 -540 0 -89 19 -138 76 -200
50 -56 106 -87 179 -100 235 -41 737 -63 950 -42 427 43 774 183 1019 412 174
163 256 336 256 544 0 148 -39 250 -137 356 -103 111 -261 197 -440 237 -40 9
-73 19 -73 22 0 3 28 16 63 29 178 68 348 171 456 275 148 144 220 296 221
466 0 198 -107 363 -292 450 -180 84 -337 110 -706 117 -369 7 -633 -16 -927
-82 -141 -32 -178 -49 -229 -105 -53 -59 -76 -114 -76 -184 l0 -59 85 5 c80 5
85 5 91 -16 23 -67 -1 -210 -88 -541 l-43 -160 -60 -8 c-33 -5 -168 -6 -300
-3 -244 5 -389 22 -407 48 -5 7 -7 65 -4 128 18 391 261 1273 517 1877 55 130
67 150 131 218 54 58 68 78 59 88 -20 25 -166 86 -243 101 -103 21 -239 20
-303 -2z m1884 -1627 c192 -46 283 -149 283 -319 2 -291 -217 -514 -577 -587
-76 -15 -307 -39 -380 -39 -21 0 -21 4 22 158 147 526 167 644 124 738 l-19
42 101 12 c56 6 111 13 122 15 43 8 264 -5 324 -20z m-733 -1230 c23 -12 63
-15 179 -14 432 5 693 -147 712 -414 16 -222 -117 -443 -327 -545 -122 -60
-183 -73 -351 -79 -179 -7 -279 10 -389 65 l-75 37 -3 49 c-4 63 34 244 114
531 81 296 107 385 109 385 2 0 16 -7 31 -15z"/>
</g>
</svg>
